<svg id="visual" viewBox="0 0 960 300" width="960" height="300" xmlns="http://www.w3.org/2000/svg" xmlns:xlink="http://www.w3.org/1999/xlink" version="1.1"><rect x="0" y="0" width="960" height="300" fill="#ffffff"></rect><path d="M0 154L22.8 145.5C45.7 137 91.3 120 137 119.8C182.7 119.7 228.3 136.3 274 135.8C319.7 135.3 365.3 117.7 411.2 112.5C457 107.3 503 114.7 548.8 118.5C594.7 122.3 640.3 122.7 686 127C731.7 131.3 777.3 139.7 823 136.3C868.7 133 914.3 118 937.2 110.5L960 103L960 301L937.2 301C914.3 301 868.7 301 823 301C777.3 301 731.7 301 686 301C640.3 301 594.7 301 548.8 301C503 301 457 301 411.2 301C365.3 301 319.7 301 274 301C228.3 301 182.7 301 137 301C91.3 301 45.7 301 22.8 301L0 301Z" fill="#3d3d3d"></path><path d="M0 174L22.8 171.2C45.7 168.3 91.3 162.7 137 162.2C182.7 161.7 228.3 166.3 274 167.8C319.7 169.3 365.3 167.7 411.2 159.5C457 151.3 503 136.7 548.8 135.5C594.7 134.3 640.3 146.7 686 153.2C731.7 159.7 777.3 160.3 823 156.2C868.7 152 914.3 143 937.2 138.5L960 134L960 301L937.2 301C914.3 301 868.7 301 823 301C777.3 301 731.7 301 686 301C640.3 301 594.7 301 548.8 301C503 301 457 301 411.2 301C365.3 301 319.7 301 274 301C228.3 301 182.7 301 137 301C91.3 301 45.7 301 22.8 301L0 301Z" fill="#323232"></path><path d="M0 187L22.8 188.5C45.7 190 91.3 193 137 189.8C182.7 186.7 228.3 177.3 274 173.8C319.7 170.3 365.3 172.7 411.2 178C457 183.3 503 191.7 548.8 197C594.7 202.3 640.3 204.7 686 206.2C731.7 207.7 777.3 208.3 823 207.8C868.7 207.3 914.3 205.7 937.2 204.8L960 204L960 301L937.2 301C914.3 301 868.7 301 823 301C777.3 301 731.7 301 686 301C640.3 301 594.7 301 548.8 301C503 301 457 301 411.2 301C365.3 301 319.7 301 274 301C228.3 301 182.7 301 137 301C91.3 301 45.7 301 22.8 301L0 301Z" fill="#272727"></path><path d="M0 231L22.8 228.3C45.7 225.7 91.3 220.3 137 219C182.7 217.7 228.3 220.3 274 219.8C319.7 219.3 365.3 215.7 411.2 212.7C457 209.7 503 207.3 548.8 209.7C594.7 212 640.3 219 686 223C731.7 227 777.3 228 823 224.7C868.7 221.3 914.3 213.7 937.2 209.8L960 206L960 301L937.2 301C914.3 301 868.7 301 823 301C777.3 301 731.7 301 686 301C640.3 301 594.7 301 548.8 301C503 301 457 301 411.2 301C365.3 301 319.7 301 274 301C228.3 301 182.7 301 137 301C91.3 301 45.7 301 22.8 301L0 301Z" fill="#1c1c1c"></path><path d="M0 259L22.8 255.5C45.7 252 91.3 245 137 244.5C182.7 244 228.3 250 274 251.5C319.7 253 365.3 250 411.2 249.7C457 249.3 503 251.7 548.8 253C594.7 254.3 640.3 254.7 686 257.5C731.7 260.3 777.3 265.7 823 264C868.7 262.3 914.3 253.7 937.2 249.3L960 245L960 301L937.2 301C914.3 301 868.7 301 823 301C777.3 301 731.7 301 686 301C640.3 301 594.7 301 548.8 301C503 301 457 301 411.2 301C365.3 301 319.7 301 274 301C228.3 301 182.7 301 137 301C91.3 301 45.7 301 22.8 301L0 301Z" fill="#111111"></path></svg>