<svg id="visual" viewBox="0 0 960 300" width="960" height="300" xmlns="http://www.w3.org/2000/svg" xmlns:xlink="http://www.w3.org/1999/xlink" version="1.1"><rect x="0" y="0" width="960" height="300" fill="#ffffff"></rect><path d="M0 144L22.8 152.5C45.7 161 91.3 178 137 178.2C182.7 178.3 228.3 161.7 274 162.2C319.7 162.7 365.3 180.3 411.2 185.5C457 190.7 503 183.3 548.8 179.5C594.7 175.7 640.3 175.3 686 171C731.7 166.7 777.3 158.3 823 161.7C868.7 165 914.3 180 937.2 187.5L960 195L960 0L937.2 0C914.3 0 868.7 0 823 0C777.3 0 731.7 0 686 0C640.3 0 594.7 0 548.8 0C503 0 457 0 411.2 0C365.3 0 319.7 0 274 0C228.3 0 182.7 0 137 0C91.3 0 45.7 0 22.8 0L0 0Z" fill="#3d3d3d"></path><path d="M0 124L22.8 126.8C45.7 129.7 91.3 135.3 137 135.8C182.7 136.3 228.3 131.7 274 130.2C319.7 128.7 365.3 130.3 411.2 138.5C457 146.7 503 161.3 548.8 162.5C594.7 163.7 640.3 151.3 686 144.8C731.7 138.3 777.3 137.7 823 141.8C868.7 146 914.3 155 937.2 159.5L960 164L960 0L937.2 0C914.3 0 868.7 0 823 0C777.3 0 731.7 0 686 0C640.3 0 594.7 0 548.8 0C503 0 457 0 411.2 0C365.3 0 319.7 0 274 0C228.3 0 182.7 0 137 0C91.3 0 45.7 0 22.8 0L0 0Z" fill="#323232"></path><path d="M0 111L22.8 109.5C45.7 108 91.3 105 137 108.2C182.7 111.3 228.3 120.7 274 124.2C319.7 127.7 365.3 125.3 411.2 120C457 114.7 503 106.3 548.8 101C594.7 95.7 640.3 93.3 686 91.8C731.7 90.3 777.3 89.7 823 90.2C868.7 90.7 914.3 92.3 937.2 93.2L960 94L960 0L937.2 0C914.3 0 868.7 0 823 0C777.3 0 731.7 0 686 0C640.3 0 594.7 0 548.8 0C503 0 457 0 411.2 0C365.3 0 319.7 0 274 0C228.3 0 182.7 0 137 0C91.3 0 45.7 0 22.8 0L0 0Z" fill="#272727"></path><path d="M0 67L22.8 69.7C45.7 72.3 91.3 77.7 137 79C182.7 80.3 228.3 77.7 274 78.2C319.7 78.7 365.3 82.3 411.2 85.3C457 88.3 503 90.7 548.8 88.3C594.7 86 640.3 79 686 75C731.7 71 777.3 70 823 73.3C868.7 76.7 914.3 84.3 937.2 88.2L960 92L960 0L937.2 0C914.3 0 868.7 0 823 0C777.3 0 731.7 0 686 0C640.3 0 594.7 0 548.8 0C503 0 457 0 411.2 0C365.3 0 319.7 0 274 0C228.3 0 182.7 0 137 0C91.3 0 45.7 0 22.8 0L0 0Z" fill="#1c1c1c"></path><path d="M0 39L22.8 42.5C45.7 46 91.3 53 137 53.5C182.7 54 228.3 48 274 46.5C319.7 45 365.3 48 411.2 48.3C457 48.7 503 46.3 548.8 45C594.7 43.7 640.3 43.3 686 40.5C731.7 37.7 777.3 32.3 823 34C868.7 35.7 914.3 44.3 937.2 48.7L960 53L960 0L937.2 0C914.3 0 868.7 0 823 0C777.3 0 731.7 0 686 0C640.3 0 594.7 0 548.8 0C503 0 457 0 411.2 0C365.3 0 319.7 0 274 0C228.3 0 182.7 0 137 0C91.3 0 45.7 0 22.8 0L0 0Z" fill="#111111"></path></svg>