<svg id="visual" viewBox="0 0 900 600" width="900" height="600" xmlns="http://www.w3.org/2000/svg" xmlns:xlink="http://www.w3.org/1999/xlink" version="1.1"><rect x="0" y="0" width="900" height="600" fill="#ffffff"></rect><path d="M0 386L129 382L257 380L386 440L514 428L643 376L771 352L900 444L900 601L771 601L643 601L514 601L386 601L257 601L129 601L0 601Z" fill="#f6f6f6"></path><path d="M0 431L129 399L257 427L386 447L514 477L643 441L771 455L900 440L900 601L771 601L643 601L514 601L386 601L257 601L129 601L0 601Z" fill="#ededed"></path><path d="M0 498L129 444L257 502L386 492L514 493L643 483L771 465L900 493L900 601L771 601L643 601L514 601L386 601L257 601L129 601L0 601Z" fill="#e4e4e4"></path><path d="M0 503L129 484L257 517L386 512L514 531L643 497L771 484L900 499L900 601L771 601L643 601L514 601L386 601L257 601L129 601L0 601Z" fill="#dbdbdb"></path><path d="M0 552L129 537L257 546L386 532L514 564L643 534L771 554L900 545L900 601L771 601L643 601L514 601L386 601L257 601L129 601L0 601Z" fill="#d3d3d3"></path></svg>