<svg id="visual" viewBox="0 0 900 300" width="900" height="300" xmlns="http://www.w3.org/2000/svg" xmlns:xlink="http://www.w3.org/1999/xlink" version="1.1"><path d="M0 31L82 49L164 55L245 37L327 79L409 52L491 49L573 52L655 52L736 49L818 37L900 40L900 0L818 0L736 0L655 0L573 0L491 0L409 0L327 0L245 0L164 0L82 0L0 0Z" fill="#ffffff"></path><path d="M0 139L82 109L164 142L245 160L327 169L409 178L491 94L573 193L655 154L736 163L818 160L900 148L900 38L818 35L736 47L655 50L573 50L491 47L409 50L327 77L245 35L164 53L82 47L0 29Z" fill="#fafafa"></path><path d="M0 202L82 160L164 166L245 187L327 220L409 208L491 148L573 220L655 205L736 190L818 196L900 175L900 146L818 158L736 161L655 152L573 191L491 92L409 176L327 167L245 158L164 140L82 107L0 137Z" fill="#f7f7f7"></path><path d="M0 226L82 196L164 205L245 217L327 238L409 253L491 199L573 253L655 244L736 208L818 244L900 214L900 173L818 194L736 188L655 203L573 218L491 146L409 206L327 218L245 185L164 164L82 158L0 200Z" fill="#fafafa"></path><path d="M0 301L82 301L164 301L245 301L327 301L409 301L491 301L573 301L655 301L736 301L818 301L900 301L900 212L818 242L736 206L655 242L573 251L491 197L409 251L327 236L245 215L164 203L82 194L0 224Z" fill="#ffffff"></path></svg>