<svg id="visual" viewBox="0 0 900 300" width="900" height="300" xmlns="http://www.w3.org/2000/svg" xmlns:xlink="http://www.w3.org/1999/xlink" version="1.1"><rect width="900" height="300" fill="#000000"></rect><g><g transform="translate(361 122)"><path d="M43.6 -14C50 5.5 44.1 29.1 28.8 40.5C13.4 51.9 -11.6 51 -27.5 39.2C-43.4 27.3 -50.4 4.3 -44.3 -14.7C-38.2 -33.7 -19.1 -48.9 -0.2 -48.8C18.6 -48.7 37.3 -33.4 43.6 -14Z" stroke="#100000" fill="none" stroke-width="8"></path></g><g transform="translate(161 55)"><path d="M29.9 -9.8C33.2 0.6 26.6 14 16.1 21.5C5.6 28.9 -8.7 30.3 -17.6 23.9C-26.6 17.5 -30.1 3.3 -26.2 -7.8C-22.4 -18.9 -11.2 -26.9 1 -27.2C13.3 -27.5 26.5 -20.2 29.9 -9.8Z" stroke="#100000" fill="none" stroke-width="8"></path></g><g transform="translate(723 29)"><path d="M16.4 -5.3C18.9 2.5 17 11.7 11.4 15.8C5.8 19.9 -3.6 18.9 -10.1 14.2C-16.5 9.4 -19.9 0.9 -17.8 -6.4C-15.6 -13.6 -7.8 -19.6 -0.4 -19.5C6.9 -19.4 13.8 -13.1 16.4 -5.3Z" stroke="#100000" fill="none" stroke-width="8"></path></g><g transform="translate(572 101)"><path d="M40.1 -12.7C45.1 2.5 37.7 22.1 23.6 32.3C9.5 42.5 -11.3 43.3 -23.4 34.1C-35.4 24.9 -38.8 5.6 -33.4 -10C-28.1 -25.7 -14 -37.6 1.7 -38.2C17.5 -38.8 35 -27.9 40.1 -12.7Z" stroke="#100000" fill="none" stroke-width="8"></path></g><g transform="translate(853 259)"><path d="M35.5 -10.7C40.3 3.2 34.5 21.4 21.8 30.8C9.1 40.3 -10.6 41 -23 31.9C-35.5 22.8 -40.8 3.9 -35.7 -10.4C-30.7 -24.6 -15.3 -34.3 0 -34.3C15.4 -34.3 30.7 -24.6 35.5 -10.7Z" stroke="#100000" fill="none" stroke-width="8"></path></g><g transform="translate(416 274)"><path d="M14.5 -4.9C16.3 0.7 13.4 7.6 8.4 11.1C3.4 14.6 -3.7 14.8 -9.1 11.2C-14.5 7.6 -18.1 0.3 -16.2 -5.4C-14.4 -11.1 -7.2 -15.2 -0.4 -15C6.4 -14.9 12.8 -10.6 14.5 -4.9Z" stroke="#100000" fill="none" stroke-width="8"></path></g><g transform="translate(139 202)"><path d="M22 -7.2C25 2.2 21.6 13.7 13.9 19.3C6.2 25 -5.9 24.9 -13.2 19.3C-20.6 13.7 -23.1 2.7 -20.1 -6.7C-17.1 -16 -8.6 -23.7 0.4 -23.9C9.5 -24 18.9 -16.6 22 -7.2Z" stroke="#100000" fill="none" stroke-width="8"></path></g><g transform="translate(13 22)"><path d="M10.1 -2.9C11.5 1.3 10.2 6.7 6.6 9.5C2.9 12.3 -3 12.3 -6.6 9.6C-10.2 6.9 -11.4 1.4 -9.9 -2.8C-8.4 -7 -4.2 -9.9 0 -9.9C4.3 -10 8.6 -7.1 10.1 -2.9Z" stroke="#100000" fill="none" stroke-width="8"></path></g><g transform="translate(9 299)"><path d="M30.7 -10.7C35 3.3 30.5 19.5 19.1 28.2C7.8 36.9 -10.3 38 -21.2 29.9C-32.2 21.8 -35.9 4.5 -31.1 -10.2C-26.4 -24.8 -13.2 -36.8 0 -36.8C13.2 -36.8 26.3 -24.8 30.7 -10.7Z" stroke="#100000" fill="none" stroke-width="8"></path></g><g transform="translate(564 247)"><path d="M37.7 -13.2C42.8 3.4 36.6 22.6 23.7 31.8C10.8 41 -8.8 40 -21.8 30.4C-34.9 20.9 -41.3 2.7 -36.6 -13.4C-31.9 -29.5 -15.9 -43.4 0.2 -43.5C16.3 -43.6 32.7 -29.7 37.7 -13.2Z" stroke="#100000" fill="none" stroke-width="8"></path></g><g transform="translate(886 42)"><path d="M42.7 -14.1C47.6 1.2 38.5 20.9 23.7 31.4C8.8 41.9 -11.9 43.4 -26.6 33.4C-41.4 23.4 -50.3 2.1 -44.8 -13.9C-39.4 -29.9 -19.7 -40.7 -0.4 -40.5C18.9 -40.4 37.8 -29.4 42.7 -14.1Z" stroke="#100000" fill="none" stroke-width="8"></path></g><g transform="translate(719 176)"><path d="M14 -5.4C15.8 0.7 13 7.4 7.9 11.3C2.7 15.1 -4.9 16.1 -10.1 12.6C-15.4 9.1 -18.4 1.1 -16.3 -5.5C-14.2 -12.1 -7.1 -17.2 -0.5 -17.1C6.2 -16.9 12.3 -11.5 14 -5.4Z" stroke="#100000" fill="none" stroke-width="8"></path></g><g transform="translate(253 291)"><path d="M30 -8.8C33.8 2 28.4 16.8 18.4 23.6C8.4 30.5 -6.1 29.4 -15.7 22.2C-25.4 15 -30.3 1.8 -26.9 -8.4C-23.5 -18.7 -11.7 -25.9 0.7 -26.1C13.1 -26.4 26.2 -19.6 30 -8.8Z" stroke="#100000" fill="none" stroke-width="8"></path></g></g></svg>